# xmcd CD database file
#
# Track frame offsets:
#	150
#	21331
#	42829
#	67372
#	84242
#	113373
#	138619
#	157762
#	178500
#	199579
#	222202
#	249873
#	271628
#	289478
#	308524
#
# Disc length: 4432 seconds
#
# Revision: 2
# Processed by: cddbd v1.4b41PL1 Copyright (c) Steve Scherf et al.
# Submitted via: Feurio! 1.50.2ß - http://www.feurio.com
#
DISCID=c7114e0f
DTITLE=George Michael - Ladies and Gentlemen CD I
DYEAR=1900
DGENRE=
TTITLE0=Outside
TTITLE1=George Michael and Mary J Blige - As
TTITLE2=Fastlove
TTITLE3=Too Funky
TTITLE4=Freedom 90
TTITLE5=Star People 97
TTITLE6=Killer - Papa Was A Rollin' ..
TTITLE7=I Want Your Sex (Part II)
TTITLE8=The Strangest Thing
TTITLE9=Fantasy
TTITLE10=Spinning The Wheel
TTITLE11=Waiting For That Day
TTITLE12=I Knew You Were Waiting ...
TTITLE13=Faith
TTITLE14=Somebody to Love
EXTD=
EXTT0=
EXTT1=
EXTT2=
EXTT3=
EXTT4=
EXTT5=
EXTT6=
EXTT7=
EXTT8=
EXTT9=
EXTT10=
EXTT11=
EXTT12=
EXTT13=
EXTT14=
PLAYORDER=
